<svg width="318" height="96" viewBox="0 0 318 96" fill="none" xmlns="http://www.w3.org/2000/svg">
<g clip-path="url(#clip0_29_1374)">
<path d="M93.8175 93.1592C94.0734 94.3999 92.7737 95.3966 91.6276 94.8271C90.6247 94.3288 89.6218 93.8203 88.6292 93.3016C72.1431 84.7793 55.79 73.267 40.6138 58.958C40.0919 58.4902 39.57 57.9817 39.0583 57.4935C23.4523 42.5235 10.7833 26.1399 1.32759 9.52231C1.28665 9.45112 1.24572 9.37993 1.20479 9.30874C0.560078 8.20023 1.51179 6.83747 2.79097 7.05103L25.0692 10.7122C44.0625 13.8343 61.6333 12.7462 76.5537 7.52902L94.9534 1.0915C96.1507 0.674533 97.3071 1.78305 96.9285 2.98309L91.0954 21.4922C86.3676 36.4826 85.8968 53.9748 89.6934 72.728L93.8278 93.1592H93.8175Z" fill="#FAFAFA"/>
<path d="M59.7197 90.2298L7.15046 93.7994C6.23968 93.8604 5.48241 93.1282 5.51311 92.2231L7.5598 31.387C7.61097 29.9124 9.51439 29.3632 10.3535 30.5734C17.2304 40.428 25.98 53.3539 34.0133 62.2627C42.0465 71.1715 51.6046 79.7243 60.6202 87.5551C61.6538 88.4501 61.0807 90.1281 59.7197 90.2298Z" fill="#FAFAFA"/>
</g>
<path d="M142.585 76.1394C137.838 76.1394 133.818 75.4114 130.527 73.9556C127.299 72.4997 124.798 70.5058 123.026 67.9739C121.254 65.3787 120.241 62.4036 119.988 59.0488L130.337 58.5741C130.843 61.3592 132.046 63.5747 133.945 65.2204C135.844 66.8662 138.724 67.6891 142.585 67.6891C145.75 67.6891 148.25 67.1827 150.086 66.1699C151.922 65.1571 152.84 63.543 152.84 61.3276C152.84 60.1249 152.523 59.1121 151.89 58.2893C151.32 57.4031 150.181 56.6752 148.472 56.1055C146.763 55.4725 144.231 54.8712 140.876 54.3015C135.876 53.352 131.951 52.2443 129.103 50.9783C126.254 49.7123 124.229 48.0982 123.026 46.136C121.823 44.1738 121.222 41.8001 121.222 39.0149C121.222 34.3942 122.931 30.6279 126.349 27.7162C129.831 24.8045 134.831 23.3486 141.351 23.3486C145.719 23.3486 149.39 24.1082 152.365 25.6274C155.34 27.0832 157.65 29.0771 159.296 31.609C161.005 34.0777 162.081 36.8628 162.524 39.9644L152.175 40.5341C151.858 38.7618 151.225 37.2426 150.276 35.9766C149.39 34.6474 148.187 33.6346 146.668 32.9383C145.149 32.1787 143.345 31.7989 141.256 31.7989C138.028 31.7989 135.622 32.4319 134.04 33.6979C132.458 34.9639 131.666 36.6096 131.666 38.6352C131.666 40.1543 132.014 41.3886 132.711 42.3381C133.47 43.2876 134.673 44.0788 136.319 44.7118C137.964 45.2815 140.148 45.7879 142.87 46.2309C148.124 47.1171 152.238 48.2248 155.213 49.5541C158.188 50.8201 160.277 52.4025 161.48 54.3015C162.682 56.2004 163.284 58.5108 163.284 61.2326C163.284 64.3975 162.398 67.0877 160.625 69.3032C158.853 71.5186 156.416 73.2276 153.314 74.4303C150.213 75.5697 146.636 76.1394 142.585 76.1394ZM174.741 89.2421V80.9817H180.913C182.622 80.9817 183.888 80.7285 184.711 80.2221C185.534 79.7157 186.167 78.8612 186.61 77.6585L188.224 73.4808H185.091L166.861 24.488H177.495L191.357 64.176L204.555 24.488H215.284L195.155 80.8867C194.142 83.7985 192.623 85.9189 190.597 87.2482C188.635 88.5775 185.882 89.2421 182.337 89.2421H174.741ZM222.148 75V24.488H231.358L231.738 37.8756L230.883 37.5907C231.58 33.0333 232.972 29.7101 235.061 27.6213C237.213 25.5324 240.093 24.488 243.701 24.488H248.544V33.508H243.701C241.169 33.508 239.049 33.9194 237.34 34.7423C235.631 35.5652 234.333 36.8312 233.447 38.5402C232.624 40.2493 232.213 42.4647 232.213 45.1865V75H222.148ZM256.826 75V24.488H266.891V75H256.826ZM256.636 17.177V7.11263H267.081V17.177H256.636ZM275.308 75V24.488H284.517L284.897 37.9705L283.663 37.3059C284.233 34.0144 285.309 31.3559 286.891 29.3303C288.474 27.3048 290.404 25.8173 292.683 24.8678C294.962 23.855 297.43 23.3486 300.089 23.3486C303.887 23.3486 307.02 24.2032 309.489 25.9122C312.021 27.558 313.92 29.8367 315.185 32.7484C316.515 35.5968 317.179 38.8567 317.179 42.528V75H307.115V45.5663C307.115 42.5913 306.798 40.091 306.165 38.0655C305.533 36.0399 304.488 34.4891 303.032 33.413C301.576 32.337 299.677 31.7989 297.335 31.7989C293.791 31.7989 290.911 32.97 288.695 35.312C286.48 37.654 285.372 41.0721 285.372 45.5663V75H275.308Z" fill="#FAFAFA"/>
<defs>
<clipPath id="clip0_29_1374">
<rect width="96" height="94" fill="white" transform="translate(1 1)"/>
</clipPath>
</defs>
</svg>
