<svg width="372" height="94" viewBox="0 0 372 94" fill="none" xmlns="http://www.w3.org/2000/svg">
  <!-- mark (from assets/Black.svg) -->
  <path d="M92.8175 92.1592C93.0734 93.3999 91.7737 94.3966 90.6276 93.8271C89.6247 93.3288 88.6218 92.8203 87.6292 92.3016C71.1431 83.7793 54.79 72.267 39.6138 57.958C39.0919 57.4902 38.57 56.9817 38.0583 56.4935C22.4523 41.5235 9.7833 25.1399 0.327586 8.52231C0.286653 8.45112 0.245719 8.37993 0.204785 8.30874C-0.439922 7.20023 0.511789 5.83747 1.79097 6.05103L24.0692 9.71218C43.0625 12.8343 60.6333 11.7462 75.5537 6.52902L93.9534 0.0914973C95.1507 -0.325467 96.3071 0.783048 95.9285 1.98309L90.0954 20.4922C85.3676 35.4826 84.8968 52.9748 88.6934 71.728L92.8278 92.1592H92.8175Z" fill="#0F0F0F"/>
  <path d="M58.7197 89.2298L6.15046 92.7994C5.23968 92.8604 4.48241 92.1282 4.51311 91.2231L6.5598 30.387C6.61097 28.9124 8.51439 28.3632 9.35353 29.5734C16.2304 39.428 24.98 52.3539 33.0133 61.2627C41.0465 70.1715 50.6046 78.7243 59.6202 86.5551C60.6538 87.4501 60.0807 89.1281 58.7197 89.2298Z" fill="#0F0F0F"/>
  <!-- wordmark: real text, no hidden paths -->
  <text x="120" y="65" font-family="'Inter','Helvetica Neue','Segoe UI',Arial,sans-serif" font-size="66" font-weight="600" letter-spacing="-3" fill="#0F0F0F">Reticle</text>
</svg>
